# Blender 4.0.2
# www.blender.org
o Cube
v -0.855935 -0.899776 0.222451
v -1.066606 1.836925 0.430211
v -0.696805 -0.441349 -0.887592
v -1.000000 1.000000 -1.000000
v 0.764119 -0.431105 1.012432
v 1.000000 1.000000 1.000000
v 1.000000 -1.000000 -1.000000
v 1.140293 0.594300 -0.565179
v -0.236531 2.245672 -0.150405
v -0.209088 1.900844 -0.739677
v 0.614947 1.900844 0.084358
vn -0.9839 -0.0631 -0.1671
vn -0.0978 -0.0978 -0.9904
vn 0.9803 -0.1274 0.1509
vn -0.4561 0.0829 0.8861
vn -0.3104 -0.8621 -0.4005
vn 0.2255 0.9478 -0.2255
vn -0.9772 -0.2000 0.0715
vn 0.2363 0.2363 -0.9425
vn 0.9786 -0.1602 0.1292
vn -0.3002 -0.0952 0.9491
vn 0.1360 -0.9491 0.2842
vn 0.6528 -0.3845 -0.6528
vn 0.4386 0.7844 -0.4386
vn 0.1106 0.7313 0.6730
vn -0.6195 0.6646 -0.4178
vt 0.625000 0.000000
vt 0.375000 0.250000
vt 0.375000 0.000000
vt 0.625000 0.250000
vt 0.375000 0.500000
vt 0.625000 0.500000
vt 0.375000 0.750000
vt 0.625000 0.750000
vt 0.375000 1.000000
vt 0.125000 0.750000
vt 0.125000 0.500000
vt 0.875000 0.500000
vt 0.625000 1.000000
vt 0.875000 0.750000
s 0
f 2/1/1 3/2/1 1/3/1
f 4/4/2 7/5/2 3/2/2
f 8/6/3 5/7/3 7/5/3
f 6/8/4 1/9/4 5/7/4
f 7/5/5 1/10/5 3/11/5
f 4/12/6 6/8/6 8/6/6
f 2/1/7 4/4/7 3/2/7
f 4/4/8 8/6/8 7/5/8
f 8/6/9 6/8/9 5/7/9
f 6/8/10 2/13/10 1/9/10
f 7/5/11 5/7/11 1/10/11
f 4/12/12 11/8/12 6/8/12
f 10/12/13 9/14/13 11/8/13
f 2/13/14 11/8/14 9/13/14
f 2/1/15 10/4/15 4/4/15
f 4/12/12 10/12/12 11/8/12
f 2/13/14 6/8/14 11/8/14
f 2/1/15 9/1/15 10/4/15
