# Blender 4.0.2
# www.blender.org
o Cube
v -0.463900 0.002940 1.000000
v -0.463900 1.463900 1.000000
v -1.000000 0.000000 -1.000000
v -0.657263 2.466575 -0.421069
v 0.463900 0.002940 1.000000
v 0.463900 1.463900 1.000000
v 1.000000 0.000000 -1.000000
v 1.000000 2.000000 -1.000000
v -0.342737 2.894747 0.421069
v -0.342737 2.894747 -0.421069
v 0.000000 3.361322 -1.000000
v 0.000000 3.361322 1.000000
v -1.000000 0.000000 1.000000
v -0.657263 2.466575 0.421069
v 1.000000 2.000000 1.000000
v 1.000000 0.000000 1.000000
v -0.427818 0.039023 1.088455
v -0.427818 1.427818 1.088455
v 0.427818 1.427818 1.088455
v 0.427818 0.039023 1.088455
v -0.463900 0.002940 1.088455
v -0.463900 1.463900 1.088455
v 0.463900 1.463900 1.088455
v 0.463900 0.002940 1.088455
v -0.427818 0.039023 0.983550
v -0.427818 1.427818 0.983550
v 0.427818 1.427818 0.983550
v 0.427818 0.039023 0.983550
v -0.961695 0.051954 0.973948
v -0.961695 1.910975 0.973948
v 0.961695 1.910975 0.973948
v 0.961695 0.051954 0.973948
v -0.961695 0.051954 -0.967698
v -0.961695 1.910975 -0.967698
v 0.961695 1.910975 -0.967698
v 0.961695 0.051954 -0.967698
v -1.000000 2.000000 1.000000
v -1.000000 2.000000 -1.000000
v 0.000000 3.361322 1.000000
v 0.000000 3.361322 -1.000000
v -0.613044 3.177145 0.376850
v -0.613044 3.177145 -0.376850
v -0.386956 3.177145 0.376850
v -0.386956 3.177145 -0.376850
v -0.657263 3.177145 0.421069
v -0.657263 3.177145 -0.421069
v -0.342737 3.177145 0.421069
v -0.342737 3.177145 -0.421069
v -0.542450 3.535713 0.306256
v -0.542450 3.535713 -0.306256
v -0.457550 3.535713 0.306256
v -0.457550 3.535713 -0.306256
v -0.613044 3.535713 0.376850
v -0.613044 3.535713 -0.376850
v -0.386956 3.535713 0.376850
v -0.386956 3.535713 -0.376850
v -0.542450 3.208075 0.306256
v -0.542450 3.208075 -0.306256
v -0.457550 3.208075 0.306256
v -0.457550 3.208075 -0.306256
vn -1.0000 -0.0000 -0.0000
vn -0.0000 -0.0000 -1.0000
vn 1.0000 -0.0000 -0.0000
vn -0.0000 -1.0000 -0.0000
vn -0.0000 1.0000 -0.0000
vn 0.8059 0.5920 -0.0000
vn -0.0000 -0.0000 1.0000
vn -0.0000 0.5962 0.8029
vn 0.0180 -0.0000 -0.9998
vn -0.0000 -0.0199 -0.9998
vn -0.0180 -0.0000 -0.9998
vn -0.8059 0.5920 -0.0000
vt 0.625000 0.000000
vt 0.375000 0.250000
vt 0.375000 0.000000
vt 0.625000 0.250000
vt 0.375000 0.500000
vt 0.625000 0.500000
vt 0.375000 0.750000
vt 0.000000 0.000000
vt 0.125000 0.750000
vt 0.125000 0.500000
vt 0.625000 0.177634
vt 0.625000 0.177634
vt 0.625000 0.750000
vt 0.625000 1.000000
vt 0.557988 0.932988
vt 0.375000 1.000000
vt 0.442012 0.932988
vt 0.557988 0.817012
vt 0.444877 0.821523
vt 0.444877 0.928477
vt 0.442012 0.817012
vt 0.555123 0.928477
vt 0.555123 0.821523
vt 0.625000 0.072366
vt 0.625000 0.172106
vt 0.625000 0.077894
vt 0.625000 0.172106
vt 0.625000 0.163282
vt 0.625000 0.086718
vt 0.625000 0.086718
s 0
f 37/1/1 3/2/1 13/3/1
f 38/4/2 7/5/2 3/2/2
f 8/6/3 16/7/3 7/5/3
f 5/8/4 21/8/4 1/8/4
f 7/5/4 13/9/4 3/10/4
f 10/11/2 46/12/2 48/11/2
f 11/6/5 39/13/5 12/13/5
f 37/14/5 12/14/5 39/14/5
f 8/6/5 40/6/5 11/6/5
f 8/6/6 12/13/6 15/13/6
f 2/15/7 13/16/7 1/17/7
f 6/18/7 16/7/7 15/13/7
f 6/18/7 37/14/7 2/15/7
f 20/19/5 25/20/5 17/20/5
f 1/17/1 22/15/1 2/15/1
f 2/15/5 23/18/5 6/18/5
f 6/18/3 24/21/3 5/21/3
f 18/22/7 21/17/7 17/20/7
f 20/19/7 23/18/7 19/23/7
f 17/20/7 24/21/7 20/19/7
f 19/23/7 22/15/7 18/22/7
f 28/19/8 29/20/8 25/20/8
f 17/20/3 26/22/3 18/22/3
f 18/22/4 27/23/4 19/23/4
f 19/23/1 28/19/1 20/19/1
f 30/22/4 35/23/4 31/23/4
f 26/22/9 29/20/9 30/22/9
f 26/22/10 31/23/10 27/23/10
f 27/23/11 32/19/11 28/19/11
f 35/23/7 33/20/7 36/19/7
f 31/23/1 36/19/1 32/19/1
f 32/19/5 33/20/5 29/20/5
f 29/20/3 34/22/3 30/22/3
f 4/12/12 37/1/12 14/24/12
f 9/24/12 40/4/12 10/11/12
f 9/24/12 37/1/12 39/1/12
f 4/12/12 40/4/12 38/4/12
f 44/25/3 55/26/3 43/26/3
f 10/11/3 47/24/3 9/24/3
f 9/24/7 45/24/7 14/24/7
f 14/24/1 46/12/1 4/12/1
f 41/26/5 46/12/5 45/24/5
f 43/26/5 48/11/5 44/25/5
f 41/26/5 47/24/5 43/26/5
f 44/25/5 46/12/5 42/27/5
f 50/28/7 60/28/7 52/28/7
f 43/26/7 53/26/7 41/26/7
f 41/26/1 54/27/1 42/27/1
f 42/27/2 56/25/2 44/25/2
f 50/28/5 53/26/5 49/29/5
f 51/30/5 56/25/5 52/28/5
f 49/29/5 55/26/5 51/30/5
f 52/28/5 54/27/5 50/28/5
f 57/29/5 60/28/5 58/28/5
f 52/28/1 59/30/1 51/30/1
f 51/30/2 57/29/2 49/29/2
f 49/29/3 58/28/3 50/28/3
f 37/1/1 38/4/1 3/2/1
f 38/4/2 8/6/2 7/5/2
f 8/6/3 15/13/3 16/7/3
f 5/8/4 24/8/4 21/8/4
f 7/5/4 16/7/4 13/9/4
f 10/11/2 4/12/2 46/12/2
f 11/6/5 40/6/5 39/13/5
f 37/14/7 15/13/7 12/14/7
f 8/6/2 38/4/2 40/6/2
f 8/6/6 11/6/6 12/13/6
f 2/15/7 37/14/7 13/16/7
f 6/18/7 5/21/7 16/7/7
f 6/18/7 15/13/7 37/14/7
f 20/19/5 28/19/5 25/20/5
f 1/17/1 21/17/1 22/15/1
f 2/15/5 22/15/5 23/18/5
f 6/18/3 23/18/3 24/21/3
f 18/22/7 22/15/7 21/17/7
f 20/19/7 24/21/7 23/18/7
f 17/20/7 21/17/7 24/21/7
f 19/23/7 23/18/7 22/15/7
f 28/19/8 32/19/8 29/20/8
f 17/20/3 25/20/3 26/22/3
f 18/22/4 26/22/4 27/23/4
f 19/23/1 27/23/1 28/19/1
f 30/22/4 34/22/4 35/23/4
f 26/22/9 25/20/9 29/20/9
f 26/22/10 30/22/10 31/23/10
f 27/23/11 31/23/11 32/19/11
f 35/23/7 34/22/7 33/20/7
f 31/23/1 35/23/1 36/19/1
f 32/19/5 36/19/5 33/20/5
f 29/20/3 33/20/3 34/22/3
f 4/12/12 38/4/12 37/1/12
f 9/24/12 39/1/12 40/4/12
f 9/24/12 14/24/12 37/1/12
f 4/12/12 10/11/12 40/4/12
f 44/25/3 56/25/3 55/26/3
f 10/11/3 48/11/3 47/24/3
f 9/24/7 47/24/7 45/24/7
f 14/24/1 45/24/1 46/12/1
f 41/26/5 42/27/5 46/12/5
f 43/26/5 47/24/5 48/11/5
f 41/26/5 45/24/5 47/24/5
f 44/25/5 48/11/5 46/12/5
f 50/28/7 58/28/7 60/28/7
f 43/26/7 55/26/7 53/26/7
f 41/26/1 53/26/1 54/27/1
f 42/27/2 54/27/2 56/25/2
f 50/28/5 54/27/5 53/26/5
f 51/30/5 55/26/5 56/25/5
f 49/29/5 53/26/5 55/26/5
f 52/28/5 56/25/5 54/27/5
f 57/29/5 59/30/5 60/28/5
f 52/28/1 60/28/1 59/30/1
f 51/30/2 59/30/2 57/29/2
f 49/29/3 57/29/3 58/28/3
